<svg xmlns="http://www.w3.org/2000/svg" width="26" height="24" viewBox="0 0 26 24" fill="none">
<path d="M20.851 7H4.17019C3.01862 7 2.08508 7.89543 2.08508 9V19C2.08508 20.1046 3.01862 21 4.17019 21H20.851C22.0026 21 22.9361 20.1046 22.9361 19V9C22.9361 7.89543 22.0026 7 20.851 7Z" stroke="currentColor" stroke-width="2" stroke-linecap="round" stroke-linejoin="round"/>
<path d="M16.6809 21V5C16.6809 4.46957 16.4612 3.96086 16.0701 3.58579C15.6791 3.21071 15.1487 3 14.5958 3H10.4256C9.87256 3 9.3422 3.21071 8.95117 3.58579C8.56013 3.96086 8.34045 4.46957 8.34045 5V21" stroke="currentColor" stroke-width="2" stroke-linecap="round" stroke-linejoin="round"/>
</svg>