<svg xmlns="http://www.w3.org/2000/svg" width="27" height="28" viewBox="0 0 27 28" fill="none">
<path d="M6.09848 0H8.53788V1.25H6.09848V0ZM18.2955 0H20.7348V1.25H18.2955V0ZM25.6136 5V3.75H21.9545V1.25H20.7348V7.5H18.2955V1.25H17.0758V3.75H9.75758V1.25H8.53788V7.5H6.09848V1.25H4.87879V3.75H1.2197V5H0V26.25H1.2197V27.5H25.6136V26.25H26.8333V5H25.6136ZM24.3939 8.75V12.5H20.7348V8.75H24.3939ZM24.3939 18.75H20.7348V15H24.3939V18.75ZM24.3939 25H20.7348V21.25H24.3939V25ZM2.43939 21.25H6.09848V25H2.43939V21.25ZM2.43939 15H6.09848V18.75H2.43939V15ZM18.2955 18.75H14.6364V15H18.2955V18.75ZM12.197 18.75H8.53788V15H12.197V18.75ZM8.53788 21.25H12.197V25H8.53788V21.25ZM14.6364 21.25H18.2955V25H14.6364V21.25ZM18.2955 12.5H14.6364V8.75H18.2955V12.5ZM12.197 8.75V12.5H8.53788V8.75H12.197ZM6.09848 12.5H2.43939V8.75H6.09848V12.5Z" fill="white"/>
</svg>