<svg xmlns="http://www.w3.org/2000/svg" viewBox="0 0 20 20" fill="none">
<path fill-rule="evenodd" clip-rule="evenodd" d="M9.19128 2.15819C9.65778 1.76237 10.3422 1.76237 10.8087 2.15819L17.0587 7.46122C17.3386 7.69872 17.5 8.04726 17.5 8.41436V16.25C17.5 16.9404 16.9404 17.5 16.25 17.5H11.4583C11.1132 17.5 10.8333 17.2202 10.8333 16.875V11.6667H9.16667V16.875C9.16667 17.2202 8.88684 17.5 8.54167 17.5H3.75C3.05964 17.5 2.5 16.9404 2.5 16.25V8.41436C2.5 8.04726 2.66136 7.69872 2.94128 7.46122L9.19128 2.15819ZM10 3.11133L3.75 8.41436L3.75 16.25H7.91667V11.0417C7.91667 10.6965 8.19649 10.4167 8.54167 10.4167H11.4583C11.8035 10.4167 12.0833 10.6965 12.0833 11.0417V16.25H16.25V8.41436L10 3.11133Z" fill="currentColor"/>
</svg>