<svg xmlns="http://www.w3.org/2000/svg" width="30" height="30" viewBox="0 0 30 30" fill="none">
<path d="M28.8663 26.4377L26.9887 20.9H24.9284L26.0725 26.3H5.92822L7.07237 20.9H5.01207L3.13307 26.4377C2.65645 27.8471 3.50117 29 5.01207 29H26.9887C28.4996 29 29.3443 27.8471 28.8663 26.4377ZM22.8681 8.75C22.8681 6.95979 22.1445 5.2429 20.8566 3.97703C19.5686 2.71116 17.8218 2 16.0004 2C14.1789 2 12.4321 2.71116 11.1442 3.97703C9.85624 5.2429 9.13268 6.95979 9.13268 8.75C9.13268 15.1962 16.0004 22.25 16.0004 22.25C16.0004 22.25 22.8681 15.1962 22.8681 8.75ZM12.2918 8.831C12.2922 7.86452 12.6831 6.93775 13.3785 6.25447C14.074 5.57119 15.017 5.18735 16.0004 5.18735C16.9838 5.18735 17.9269 5.5713 18.6222 6.25475C19.3176 6.93819 19.7082 7.86514 19.7082 8.83168C19.7082 9.79821 19.3176 10.7252 18.6222 11.4086C17.9269 12.092 16.9838 12.476 16.0004 12.476C15.0168 12.476 14.0735 12.092 13.378 11.4084C12.6825 10.7248 12.2918 9.79771 12.2918 8.831Z" fill="white"/>
</svg>