<svg width="34" height="32" viewBox="0 0 34 32" fill="none" xmlns="http://www.w3.org/2000/svg">
<path d="M23.9799 17.333C23.9657 15.773 24.6005 14.453 25.8842 13.373C25.0802 12.333 23.8811 11.7064 22.2872 11.493C20.7638 11.2797 19.1134 12.2664 18.4786 12.2664C17.8016 12.2664 16.3628 11.533 15.2343 11.533C12.7658 11.573 10.1421 13.333 10.1421 16.9064C10.1421 17.9464 10.3396 19.0264 10.7346 20.1464C11.2424 21.573 13.3017 25.533 15.4459 25.4664C16.4897 25.4397 17.2091 24.7864 18.5914 24.7864C19.9315 24.7864 20.5945 25.4664 21.7794 25.4664C23.9799 25.4264 25.8419 21.853 26.3214 20.4264C23.3875 19.1064 23.9799 17.413 23.9799 17.333ZM21.4409 9.86641C22.5269 8.62641 22.4142 7.50641 22.3718 7.06641C21.3985 7.13307 20.256 7.70641 19.5789 8.42641C18.8313 9.21307 18.394 10.1864 18.4786 11.3064C19.5366 11.3864 20.4957 10.9064 21.4409 9.86641Z" fill="white"/>
</svg>
