<svg width="32" height="23" viewBox="0 0 32 23" fill="none" xmlns="http://www.w3.org/2000/svg">
<mask id="mask0_985_63" style="mask-type:luminance" maskUnits="userSpaceOnUse" x="0" y="0" width="32" height="23">
<rect width="32" height="22.8571" rx="4" fill="white"/>
</mask>
<g mask="url(#mask0_985_63)">
<rect width="32" height="22.8571" fill="#EE343C"/>
<path fill-rule="evenodd" clip-rule="evenodd" d="M14.3405 5.1979C13.9763 4.83379 13.4058 4.7773 12.9774 5.06293C12.2872 5.52303 12.3516 6.55704 13.0935 6.92798L13.9555 7.35901C14.2746 7.51854 14.4761 7.84464 14.4761 8.20135C14.4761 8.72147 14.0545 9.14312 13.5344 9.14312H13.2434C13.052 9.14312 12.8632 9.09856 12.692 9.01297L10.5637 7.9488C10.1702 7.75203 9.69487 7.82916 9.38375 8.14028C8.89039 8.63363 9.02536 9.46534 9.64941 9.77737L10.4052 10.1553C10.8612 10.3832 10.9007 11.0188 10.4766 11.3016C9.98437 11.6297 10.1346 12.3891 10.7146 12.5051L11.3569 12.6335C11.9735 12.7569 12.1537 13.5516 11.6507 13.9289L11.0757 14.3601C10.7006 14.6414 10.8996 15.2384 11.3685 15.2384C11.4084 15.2384 11.4481 15.2335 11.4868 15.2238L12.9288 14.8633C13.4756 14.7266 13.9041 15.3346 13.5914 15.8035C13.3183 16.2133 13.612 16.7622 14.1045 16.7622H14.7713C15.05 16.7622 15.2975 16.9405 15.3856 17.2049C15.5824 17.7953 16.4175 17.7953 16.6143 17.2049C16.7024 16.9405 16.9499 16.7622 17.2286 16.7622H17.8954C18.3879 16.7622 18.6817 16.2133 18.4085 15.8035C18.0958 15.3346 18.5243 14.7266 19.0711 14.8633L20.5131 15.2238C20.5518 15.2335 20.5916 15.2384 20.6314 15.2384C21.1003 15.2384 21.2993 14.6414 20.9242 14.3601L20.3492 13.9289C19.8462 13.5516 20.0264 12.7569 20.6431 12.6335L21.2853 12.5051C21.8653 12.3891 22.0155 11.6297 21.5234 11.3016C21.0992 11.0188 21.1387 10.3832 21.5947 10.1553L22.3505 9.77737C22.9746 9.46534 23.1095 8.63363 22.6162 8.14028C22.305 7.82916 21.8298 7.75203 21.4362 7.9488L19.3079 9.01297C19.1367 9.09856 18.9479 9.14312 18.7566 9.14312H18.4655C17.9454 9.14312 17.5238 8.72147 17.5238 8.20135C17.5238 7.84464 17.7251 7.51865 18.0441 7.35912C18.3159 7.22326 18.6137 7.07436 18.9065 6.92796C19.6483 6.55702 19.7127 5.52303 19.0225 5.06293C18.5941 4.7773 18.0236 4.83379 17.6595 5.1979L16.9428 5.91459C16.4221 6.43529 15.5778 6.43529 15.0571 5.91459L14.3405 5.1979Z" fill="#262626"/>
</g>
</svg>
