<svg width="26" height="24" viewBox="0 0 26 24" fill="none" xmlns="http://www.w3.org/2000/svg">
<path d="M17.9847 2H7.4054C4.48399 2 2.11572 4.23858 2.11572 7V17C2.11572 19.7614 4.48399 22 7.4054 22H17.9847C20.9061 22 23.2744 19.7614 23.2744 17V7C23.2744 4.23858 20.9061 2 17.9847 2Z" stroke="white" stroke-width="2" stroke-linecap="round" stroke-linejoin="round"/>
<path d="M16.927 11.3703C17.0575 12.2025 16.9072 13.0525 16.4973 13.7993C16.0873 14.5461 15.4386 15.1517 14.6435 15.53C13.8485 15.9082 12.9475 16.0399 12.0687 15.9062C11.1899 15.7726 10.3781 15.3804 9.74873 14.7855C9.11934 14.1905 8.70443 13.4232 8.56303 12.5925C8.42161 11.7618 8.56091 10.9102 8.96109 10.1587C9.36126 9.40715 10.0019 8.79405 10.792 8.40655C11.5821 8.01905 12.4813 7.87689 13.3617 8.00031C14.2598 8.12619 15.0914 8.52176 15.7333 9.1286C16.3753 9.73545 16.7938 10.5214 16.927 11.3703Z" stroke="white" stroke-width="2" stroke-linecap="round" stroke-linejoin="round"/>
<path d="M18.5137 6.5H18.5237" stroke="white" stroke-width="2" stroke-linecap="round" stroke-linejoin="round"/>
</svg>
