<svg width="22" height="20" viewBox="0 0 22 20" fill="none" xmlns="http://www.w3.org/2000/svg">
<path d="M19.3954 14.0994V16.5994C19.3965 16.8315 19.3461 17.0612 19.2477 17.2739C19.1494 17.4865 19.0051 17.6774 18.8242 17.8343C18.6433 17.9912 18.4297 18.1106 18.1971 18.185C17.9645 18.2594 17.718 18.287 17.4736 18.2661C14.7606 17.9874 12.1546 17.1112 9.86519 15.7077C7.73507 14.4282 5.92909 12.7211 4.57553 10.7077C3.08557 8.53381 2.15836 6.05859 1.86897 3.48277C1.84694 3.25237 1.87591 3.02012 1.95405 2.80082C2.03218 2.58152 2.15777 2.38004 2.32279 2.20923C2.48783 2.03843 2.6887 1.90161 2.91261 1.80822C3.13653 1.71483 3.37859 1.66636 3.62339 1.6661H6.26822C6.6962 1.66213 7.11086 1.80537 7.43513 2.06908C7.75941 2.33279 7.96786 2.69901 8.02263 3.09943C8.12502 3.8995 8.31833 4.68505 8.59568 5.4411C8.71756 5.73939 8.74051 6.06357 8.6615 6.37324C8.5825 6.68291 8.40476 6.96517 8.15487 7.18277L7.0264 8.24943C8.26413 10.3438 10.215 12.1878 12.4307 13.3577L13.5592 12.2911C13.7894 12.0549 14.088 11.8869 14.4156 11.8122C14.7432 11.7375 15.0861 11.7592 15.4017 11.8744C16.2016 12.1366 17.0326 12.3193 17.8791 12.4161C18.3073 12.4682 18.6984 12.6688 18.978 12.9807C19.2578 13.2926 19.4062 13.6907 19.3954 14.0994Z" stroke="white" stroke-width="2" stroke-linecap="round" stroke-linejoin="round"/>
</svg>
