<svg width="24" height="24" viewBox="0 0 24 24" fill="none" xmlns="http://www.w3.org/2000/svg">
<path d="M15.1271 14.2658H14.2549L13.947 13.9725C15.0531 12.7238 15.688 11.1372 15.6871 9.49701C15.6871 8.2306 15.3045 6.99093 14.5883 5.93021C13.872 4.86949 12.8545 4.03584 11.6609 3.5317C10.4672 3.02755 9.14963 2.8781 7.87421 3.0997C6.59878 3.32132 5.42005 3.90369 4.49648 4.7758C3.57294 5.64792 2.94677 6.77155 2.69722 7.98794C2.44769 9.20432 2.58545 10.465 3.09656 11.6035C3.60768 12.7419 4.47259 13.7066 5.57429 14.3741C6.67598 15.0417 7.96568 15.3801 9.28118 15.3801C10.9639 15.3801 12.4926 14.7602 13.7467 13.7808L14.044 14.0845V14.9449L19.6208 20.43L21.3985 18.6765L15.1271 14.2658ZM9.28118 14.2658C6.67771 14.2658 4.5722 12.189 4.5722 9.62107C4.5722 7.0531 6.67771 4.97631 9.28118 4.97631C11.8847 4.97631 13.9902 7.0531 13.9902 9.62107C13.9902 12.189 11.8847 14.2658 9.28118 14.2658Z" fill="white"/>
</svg>
