<svg width="26" height="24" viewBox="0 0 26 24" fill="none" xmlns="http://www.w3.org/2000/svg">
<g clip-path="url(#clip0_818_1115)">
<path d="M23.8456 6.42C23.72 5.94541 23.464 5.51057 23.1037 5.15941C22.7433 4.80824 22.2912 4.55318 21.7933 4.42C19.9736 4 12.695 4 12.695 4C12.695 4 5.41642 4 3.59678 4.46C3.09875 4.59318 2.64675 4.84824 2.28632 5.19941C1.9259 5.55057 1.67001 5.98541 1.54438 6.46C1.21136 8.20556 1.04845 9.97631 1.05773 11.75C1.04586 13.537 1.20878 15.3213 1.54438 17.08C1.68293 17.5398 1.94461 17.9581 2.30417 18.2945C2.66373 18.6308 3.1089 18.8738 3.59678 19C5.41642 19.46 12.695 19.46 12.695 19.46C12.695 19.46 19.9736 19.46 21.7933 19C22.2912 18.8668 22.7433 18.6118 23.1037 18.2606C23.464 17.9094 23.72 17.4746 23.8456 17C24.1761 15.2676 24.339 13.5103 24.3323 11.75C24.3441 9.96295 24.1812 8.1787 23.8456 6.42Z" stroke="white" stroke-width="2" stroke-linecap="round" stroke-linejoin="round"/>
<path d="M10.3149 15.0205L16.3981 11.7505L10.3149 8.48047V15.0205Z" stroke="white" stroke-width="2" stroke-linecap="round" stroke-linejoin="round"/>
</g>
<defs>
<clipPath id="clip0_818_1115">
<rect width="25.3904" height="24" fill="white"/>
</clipPath>
</defs>
</svg>
